<svg version="1.1" xmlns="http://www.w3.org/2000/svg" xmlns:xlink="http://www.w3.org/1999/xlink" width="512.000000pt" height="512.000000pt" viewBox="0,0,256,256"><g fill="#ffffff" fill-rule="nonzero" stroke="none" stroke-width="1" stroke-linecap="butt" stroke-linejoin="miter" stroke-miterlimit="10" stroke-dasharray="" stroke-dashoffset="0" font-family="none" font-weight="none" font-size="none" text-anchor="none" style="mix-blend-mode: normal"><g transform="translate(0.10469,0.05577) scale(0.5,0.5)"><g transform="translate(0,512) scale(0.1,-0.1)"><path d="M1114,4846c-442,-82 -767,-407 -838,-841c-15,-90 -17,-238 -14,-1490l3,-1390l28,-100c100,-365 367,-632 736,-733l96,-27h1435h1435l100,27c365,101 632,368 733,737l27,96v1435v1435l-27,96c-101,369 -368,636 -733,736l-100,28l-1405,2c-1112,1 -1420,-1 -1476,-11zM2386,4170c9,-18 9,-46 2,-100c-13,-102 -2,-323 22,-444c28,-143 63,-243 135,-391c208,-425 611,-731 1085,-826c117,-24 340,-34 440,-21c55,7 82,7 100,-2c23,-11 25,-16 23,-76c-2,-83 -40,-229 -94,-365c-323,-812 -1230,-1234 -2058,-959c-877,291 -1348,1246 -1044,2117c187,538 635,942 1188,1072c129,31 186,29 201,-5z"></path></g></g></g></svg>