<svg version="1.1" xmlns="http://www.w3.org/2000/svg" xmlns:xlink="http://www.w3.org/1999/xlink" width="512.000000pt" height="512.000000pt" viewBox="0,0,256,256"><g fill="#ffffff" fill-rule="nonzero" stroke="none" stroke-width="1" stroke-linecap="butt" stroke-linejoin="miter" stroke-miterlimit="10" stroke-dasharray="" stroke-dashoffset="0" font-family="none" font-weight="none" font-size="none" text-anchor="none" style="mix-blend-mode: normal"><g transform="translate(0.10469,0.05577) scale(0.5,0.5)"><g transform="translate(0,512) scale(0.1,-0.1)"><path d="M1114,4846c-442,-82 -767,-407 -838,-841c-15,-90 -17,-238 -14,-1490l3,-1390l28,-100c100,-365 367,-632 736,-733l96,-27h1435h1435l100,27c365,101 632,368 733,737l27,96v1435v1435l-27,96c-101,369 -368,636 -733,736l-100,28l-1405,2c-1112,1 -1420,-1 -1476,-11zM2600,4200c19,-19 20,-33 20,-217c0,-169 -2,-199 -17,-215c-20,-22 -61,-23 -85,-1c-16,15 -18,35 -18,215c0,185 1,199 20,218c11,11 29,20 40,20c11,0 29,-9 40,-20zM1598,3607c149,-150 160,-169 122,-207c-38,-38 -57,-27 -207,122c-150,149 -162,170 -126,210c36,40 61,26 211,-125zM3730,3730c38,-38 27,-57 -123,-207c-150,-150 -169,-161 -207,-123c-38,38 -27,57 123,207c150,150 169,161 207,123zM2658,3410c402,-51 703,-355 753,-761c40,-335 -147,-686 -451,-843c-163,-84 -327,-116 -492,-96c-406,49 -709,353 -759,761c-43,357 175,733 507,872c156,66 289,86 442,67zM1352,2603c22,-20 23,-61 1,-85c-15,-16 -35,-18 -215,-18c-185,0 -199,1 -218,20c-11,11 -20,29 -20,40c0,11 9,29 20,40c19,19 33,20 217,20c169,0 199,-2 215,-17zM4200,2600c11,-11 20,-29 20,-40c0,-11 -9,-29 -20,-40c-19,-19 -33,-20 -217,-20c-169,0 -199,2 -215,17c-22,20 -23,61 -1,85c15,16 35,18 215,18c185,0 199,-1 218,-20zM1728,1728c7,-7 12,-26 12,-43c0,-26 -20,-51 -143,-173c-149,-148 -170,-160 -209,-125c-40,36 -26,60 124,210c122,122 147,143 173,143c17,0 36,-5 43,-12zM3607,1597c149,-149 162,-170 126,-209c-36,-40 -60,-26 -210,124c-149,149 -162,170 -126,210c36,40 60,25 210,-125zM2602,1353c16,-15 18,-35 18,-215c0,-185 -1,-199 -20,-218c-11,-11 -29,-20 -40,-20c-11,0 -29,9 -40,20c-19,19 -20,33 -20,217c0,169 2,199 17,215c20,22 61,23 85,1z"></path></g></g></g></svg>